<svg xmlns="http://www.w3.org/2000/svg" xmlns:xlink="http://www.w3.org/1999/xlink" version="1.1" width="100" height="100" viewBox="0 0 100 100" xml:space="preserve">
<desc>Created with Fabric.js 3.5.0</desc>
<defs>
</defs>
<rect x="0" y="0" width="100%" height="100%" fill="rgba(255,255,255,0)"/>
<g transform="matrix(0.1269 0 0 0.1234 50.0015 49.9819)" id="987317">
<g style="" vector-effect="non-scaling-stroke">
		<g transform="matrix(1 0 0 1 -450 -450)">
<rect style="stroke: none; stroke-width: 1; stroke-dasharray: none; stroke-linecap: butt; stroke-dashoffset: 0; stroke-linejoin: miter; stroke-miterlimit: 4; is-custom-font: none; font-file-url: none; fill: rgb(255,255,255); fill-rule: nonzero; opacity: 1;" x="-50" y="-50" rx="0" ry="0" width="100" height="100"/>
</g>
		<g transform="matrix(1.1075 0 0 1.1075 178.9473 -260.8226)" id="SVGRepo_iconCarrier">
<circle style="stroke: none; stroke-width: 1; stroke-dasharray: none; stroke-linecap: butt; stroke-dashoffset: 0; stroke-linejoin: miter; stroke-miterlimit: 4; is-custom-font: none; font-file-url: none; fill: rgb(229,229,229); fill-rule: nonzero; opacity: 1;" vector-effect="non-scaling-stroke" cx="0" cy="0" r="55.606"/>
</g>
		<g transform="matrix(1.1075 0 0 1.1075 -95.4967 15.7333)" id="SVGRepo_iconCarrier">
<path style="stroke: none; stroke-width: 1; stroke-dasharray: none; stroke-linecap: butt; stroke-dashoffset: 0; stroke-linejoin: miter; stroke-miterlimit: 4; is-custom-font: none; font-file-url: none; fill: rgb(74,125,186); fill-rule: nonzero; opacity: 1;" vector-effect="non-scaling-stroke" transform=" translate(-196.2815, -316.4365)" d="M 374.221 316.438 c 0 8.5 -0.598 16.872 -1.747 25.057 c -7.231 51.303 -36.34 95.578 -77.598 123.085 c -9.811 6.544 -20.31 12.14 -31.365 16.653 c -20.35 8.314 -42.592 12.965 -65.902 13.135 c -0.445 0.008 -0.882 0.008 -1.327 0.008 c -20.584 0 -40.352 -3.494 -58.745 -9.925 c -40.587 -14.186 -74.468 -42.673 -95.602 -79.418 c -15.011 -26.085 -23.593 -56.342 -23.593 -88.597 c 0 -19.129 3.017 -37.553 8.606 -54.822 c 11.331 -35.037 33.242 -65.319 61.972 -87.085 c 9.455 -7.174 19.655 -13.418 30.46 -18.602 c 23.278 -11.169 49.362 -17.43 76.902 -17.43 c 0.494 0 0.995 0 1.488 0.008 c 22.339 0.178 43.709 4.481 63.362 12.181 c 63.176 24.742 108.77 84.554 112.798 155.495 C 374.124 309.579 374.221 312.992 374.221 316.438 z" stroke-linecap="round"/>
</g>
		<g transform="matrix(1.1075 0 0 1.1075 -73.0608 128.4058)" id="SVGRepo_iconCarrier">
<path style="stroke: none; stroke-width: 1; stroke-dasharray: none; stroke-linecap: butt; stroke-dashoffset: 0; stroke-linejoin: miter; stroke-miterlimit: 4; is-custom-font: none; font-file-url: none; fill: rgb(135,223,214); fill-rule: nonzero; opacity: 1;" vector-effect="non-scaling-stroke" transform=" translate(-216.538, -418.1695)" d="M 295.539 449.739 c 0 5.039 -0.227 9.989 -0.663 14.842 c -9.811 6.544 -20.31 12.14 -31.365 16.653 c -20.35 8.314 -42.592 12.965 -65.902 13.135 c -0.445 0.008 -0.882 0.008 -1.327 0.008 c -20.584 0 -40.352 -3.494 -58.745 -9.925 c 69.016 -103.665 52.112 -142.49 88.04 -142.49 C 264.222 341.964 295.539 390.217 295.539 449.739 z" stroke-linecap="round"/>
</g>
		<g transform="matrix(1.1075 0 0 1.1075 -5.9183 -64.8794)" id="SVGRepo_iconCarrier">
<path style="stroke: none; stroke-width: 1; stroke-dasharray: none; stroke-linecap: butt; stroke-dashoffset: 0; stroke-linejoin: miter; stroke-miterlimit: 4; is-custom-font: none; font-file-url: none; fill: rgb(200,244,222); fill-rule: nonzero; opacity: 1;" vector-effect="non-scaling-stroke" transform=" translate(-277.1625, -243.649)" d="M 374.221 316.438 c 0 8.5 -0.598 16.872 -1.747 25.057 c -9.075 4.699 -19.023 7.296 -29.457 7.296 c -42.698 0 -77.315 -43.457 -77.315 -97.058 v -0.339 c 0.057 -18.869 -11.526 -35.863 -29.288 -42.236 c -25.567 -9.164 -56.31 -23.698 -56.31 -40.061 c 0 -11.509 6.584 -22.121 17.665 -30.59 c 22.339 0.178 43.709 4.481 63.362 12.181 c 63.176 24.742 108.77 84.554 112.798 155.495 C 374.124 309.579 374.221 312.992 374.221 316.438 z" stroke-linecap="round"/>
</g>
		<g transform="matrix(1.1075 0 0 1.1075 -57.2618 159.0549)" id="SVGRepo_iconCarrier">
<path style="stroke: none; stroke-width: 1; stroke-dasharray: none; stroke-linecap: butt; stroke-dashoffset: 0; stroke-linejoin: miter; stroke-miterlimit: 4; is-custom-font: none; font-file-url: none; fill: rgb(200,244,222); fill-rule: nonzero; opacity: 1;" vector-effect="non-scaling-stroke" transform=" translate(-230.8023, -445.8425)" d="M 265.322 468.026 c -0.388 4.537 -1.003 8.954 -1.812 13.208 c -20.35 8.314 -42.592 12.965 -65.902 13.135 c -1.787 -9.738 -2.321 -20.747 -1.327 -32.305 c 3.227 -37.375 21.296 -66.33 40.36 -64.681 C 255.706 399.026 268.549 430.658 265.322 468.026 z" stroke-linecap="round"/>
</g>
		<g transform="matrix(1.1075 0 0 1.1075 -212.858 -13.6817)" id="SVGRepo_iconCarrier">
<path style="stroke: none; stroke-width: 1; stroke-dasharray: none; stroke-linecap: butt; stroke-dashoffset: 0; stroke-linejoin: miter; stroke-miterlimit: 4; is-custom-font: none; font-file-url: none; fill: rgb(200,244,222); fill-rule: nonzero; opacity: 1;" vector-effect="non-scaling-stroke" transform=" translate(-90.3122, -289.8758)" d="M 151.2 189.23 c -7.83 -13.559 -18.897 -25.013 -31.821 -33.302 c -10.805 5.185 -21.005 11.429 -30.46 18.604 c -28.729 21.765 -50.64 52.047 -61.972 87.086 c -5.59 17.268 -8.606 35.694 -8.606 54.822 c 0 32.255 8.581 62.513 23.594 88.597 c 9.56 5.112 19.541 9.464 29.651 13.135 c 76.166 27.671 39.802 -50.55 82.369 -141.364 c 3.228 -6.888 5.592 -13.747 7.171 -20.513 c 0 0 2.798 -5.886 -0.307 -33.5 S 151.2 189.23 151.2 189.23 z" stroke-linecap="round"/>
</g>
		<g transform="matrix(1.1075 0 0 1.1075 34.6951 -81.6522)" id="SVGRepo_iconCarrier">
<path style="stroke: none; stroke-width: 1; stroke-dasharray: none; stroke-linecap: butt; stroke-dashoffset: 0; stroke-linejoin: miter; stroke-miterlimit: 4; is-custom-font: none; font-file-url: none; fill: rgb(135,223,214); fill-rule: nonzero; opacity: 1;" vector-effect="non-scaling-stroke" transform=" translate(-313.8331, -228.5033)" d="M 373.93 306.182 c -1.901 0.146 -3.818 0.178 -5.751 0.081 c -31.706 -1.545 -55.824 -35.07 -53.883 -74.864 l 0.017 -0.259 c 0.728 -14.009 -7.255 -27.039 -20.213 -32.417 c -18.651 -7.733 -40.951 -19.638 -40.352 -31.794 c 0.291 -5.945 2.928 -11.453 7.384 -16.241 C 324.309 175.428 369.902 235.241 373.93 306.182 z" stroke-linecap="round"/>
</g>
		<g transform="matrix(1.1075 0 0 1.1075 -236.5956 -90.246)" id="SVGRepo_iconCarrier">
<path style="stroke: none; stroke-width: 1; stroke-dasharray: none; stroke-linecap: butt; stroke-dashoffset: 0; stroke-linejoin: miter; stroke-miterlimit: 4; is-custom-font: none; font-file-url: none; fill: rgb(135,223,214); fill-rule: nonzero; opacity: 1;" vector-effect="non-scaling-stroke" transform=" translate(-68.8781, -220.7426)" d="M 99.579 239.171 c -29.207 -1.189 -56.803 42.673 -72.632 22.445 c 11.331 -35.037 33.242 -65.319 61.972 -87.085 c 2.637 2.402 5.145 5.104 7.473 8.081 C 112.222 202.839 117.43 239.907 99.579 239.171 z" stroke-linecap="round"/>
</g>
		<g transform="matrix(1.1075 0 0 1.1075 -230.3074 41.6703)" id="SVGRepo_iconCarrier">
<ellipse style="stroke: none; stroke-width: 1; stroke-dasharray: none; stroke-linecap: butt; stroke-dashoffset: 0; stroke-linejoin: miter; stroke-miterlimit: 4; is-custom-font: none; font-file-url: none; fill: rgb(135,223,214); fill-rule: nonzero; opacity: 1;" vector-effect="non-scaling-stroke" cx="0" cy="0" rx="24.667" ry="43.718"/>
</g>
		<g transform="matrix(1.1075 0 0 1.1075 -134.7626 -87.9774)" id="SVGRepo_iconCarrier">
<path style="stroke: none; stroke-width: 1; stroke-dasharray: none; stroke-linecap: butt; stroke-dashoffset: 0; stroke-linejoin: miter; stroke-miterlimit: 4; is-custom-font: none; font-file-url: none; fill: rgb(0,0,0); fill-rule: nonzero; opacity: 1;" vector-effect="non-scaling-stroke" transform=" translate(-160.825, -222.791)" d="M 160.877 211.668 c -1.232 0.017 -2.48 0.192 -3.679 0.606 c -0.663 0.228 -1.297 0.517 -1.896 0.86 c -0.948 0.54 -1.795 1.211 -2.527 1.98 c -1.905 1.996 -3.075 4.701 -3.075 7.677 c 0 5.734 4.338 10.454 9.912 11.056 c 0.399 0.044 0.802 0.067 1.208 0.067 c 0.542 0 1.09 -0.04 1.638 -0.121 c 5.369 -0.788 9.492 -5.414 9.492 -11.003 C 171.949 216.663 166.997 211.695 160.877 211.668 z" stroke-linecap="round"/>
</g>
		<g transform="matrix(1.1075 0 0 1.1075 -230.3093 41.671)" id="SVGRepo_iconCarrier">
<path style="stroke: none; stroke-width: 1; stroke-dasharray: none; stroke-linecap: butt; stroke-dashoffset: 0; stroke-linejoin: miter; stroke-miterlimit: 4; is-custom-font: none; font-file-url: none; fill: rgb(0,0,0); fill-rule: nonzero; opacity: 1;" vector-effect="non-scaling-stroke" transform=" translate(-74.554, -339.8545)" d="M 74.554 285.019 c -20.404 0 -35.79 23.574 -35.79 54.835 c 0 31.262 15.386 54.836 35.79 54.836 s 35.79 -23.574 35.79 -54.836 C 110.346 308.593 94.958 285.019 74.554 285.019 z M 74.554 372.448 c -4.775 0 -13.548 -12.375 -13.548 -32.594 c 0 -20.218 8.771 -32.593 13.548 -32.593 c 4.777 0 13.548 12.375 13.548 32.593 C 88.103 360.073 79.331 372.448 74.554 372.448 z" stroke-linecap="round"/>
</g>
		<g transform="matrix(1.1075 0 0 1.1075 -95.5261 16.2806)" id="SVGRepo_iconCarrier">
<path style="stroke: none; stroke-width: 1; stroke-dasharray: none; stroke-linecap: butt; stroke-dashoffset: 0; stroke-linejoin: miter; stroke-miterlimit: 4; is-custom-font: none; font-file-url: none; fill: rgb(0,0,0); fill-rule: nonzero; opacity: 1;" vector-effect="non-scaling-stroke" transform=" translate(-196.2555, -316.9308)" d="M 377.151 136.085 c -20.638 -20.638 -59.44 -18.743 -109.573 5.234 c -0.799 -0.326 -1.586 -0.672 -2.391 -0.988 c -0.008 -0.003 -0.014 -0.004 -0.022 -0.008 c -1.333 -0.523 -2.671 -1.03 -4.014 -1.519 c -20.252 -7.406 -41.519 -11.246 -63.211 -11.419 c -0.012 0 -0.024 0 -0.036 0 c -0.016 0 -0.031 -0.001 -0.047 -0.001 c -0.004 0 -0.009 0.001 -0.013 0.001 c -0.519 -0.008 -1.045 -0.009 -1.564 -0.009 c -28.605 0 -56.097 6.232 -81.713 18.524 c -11.396 5.468 -22.287 12.119 -32.365 19.765 c -6.807 5.158 -13.215 10.718 -19.197 16.644 c -1.292 1.28 -2.558 2.583 -3.81 3.898 c -1.164 1.222 -2.315 2.453 -3.445 3.703 c -0.934 1.035 -1.857 2.08 -2.768 3.134 c -16.368 18.953 -28.804 40.988 -36.617 65.146 c -6.069 18.751 -9.146 38.348 -9.146 58.246 c 0 6.203 0.305 12.389 0.909 18.531 c 0.439 4.466 1.05 8.907 1.802 13.321 c 2.288 13.419 6.012 26.549 11.107 39.143 c -24.352 50.536 -26.388 89.63 -5.626 110.391 c 9.461 9.461 22.82 14.176 39.37 14.175 c 18.902 -0.001 41.965 -6.153 68.114 -18.417 c 1.068 -0.5 2.142 -1.02 3.216 -1.539 c 2.559 1.023 5.144 1.994 7.755 2.906 c 20.018 6.999 41.017 10.547 62.415 10.547 c 0.444 0 0.881 -0.002 1.323 -0.009 c 0.001 0 0.001 0 0.002 0 c 0.027 0 0.054 0 0.082 0 c 0.018 0 0.037 -0.001 0.054 -0.001 c 0.002 0 0.004 0 0.007 0 c 0.092 -0.001 0.183 -0.004 0.276 -0.006 c 1.42 -0.013 2.838 -0.038 4.254 -0.081 c 0.013 -0.001 0.027 -0.001 0.041 -0.002 c 1.494 -0.047 2.984 -0.11 4.472 -0.191 c 0.032 -0.001 0.064 -0.004 0.097 -0.007 c 2.97 -0.162 5.93 -0.394 8.877 -0.695 c 0.061 -0.006 0.121 -0.014 0.182 -0.021 c 1.428 -0.147 2.853 -0.308 4.275 -0.487 c 0.081 -0.01 0.163 -0.023 0.245 -0.033 c 1.4 -0.178 2.797 -0.369 4.19 -0.579 c 0.206 -0.031 0.409 -0.069 0.615 -0.1 c 1.268 -0.196 2.535 -0.396 3.798 -0.617 c 0.433 -0.076 0.862 -0.163 1.292 -0.242 c 1.034 -0.188 2.07 -0.375 3.101 -0.579 c 0.668 -0.133 1.333 -0.284 2.001 -0.424 c 0.788 -0.167 1.579 -0.326 2.365 -0.502 c 1.078 -0.242 2.15 -0.503 3.223 -0.764 c 0.374 -0.091 0.748 -0.172 1.121 -0.266 c 8.675 -2.165 17.199 -4.954 25.537 -8.362 c 10.418 -4.254 20.502 -9.483 30.035 -15.556 c 1.105 -0.705 2.209 -1.413 3.299 -2.141 c 44.895 -29.934 74.945 -77.604 82.442 -130.794 c 1.23 -8.777 1.855 -17.726 1.855 -26.601 c 0 -3.622 -0.105 -7.285 -0.308 -10.888 c -0.783 -13.779 -3.072 -27.255 -6.728 -40.233 c -1.219 -4.326 -2.589 -8.597 -4.107 -12.806 c -0.758 -2.104 -1.554 -4.194 -2.385 -6.266 c -0.028 -0.069 -0.059 -0.136 -0.087 -0.205 c 0.396 -0.824 0.797 -1.65 1.182 -2.472 C 395.91 194.522 397.417 156.351 377.151 136.085 z M 361.424 151.814 c 11.26 11.26 10.219 35.94 -2.572 68.25 c -9.395 -15.824 -21.063 -30.244 -34.64 -42.76 c -9.381 -8.647 -19.671 -16.378 -30.751 -23.034 C 325.463 141.658 350.17 140.561 361.424 151.814 z M 284.418 449.738 c 0 2.828 -0.078 5.668 -0.231 8.487 c -0.571 0.355 -1.143 0.708 -1.718 1.055 c -0.346 0.209 -0.688 0.421 -1.035 0.627 c -1.102 0.656 -2.212 1.301 -3.33 1.931 c -0.186 0.106 -0.375 0.206 -0.561 0.308 c -0.245 0.137 -0.492 0.268 -0.737 0.404 c 0.731 -17.47 -1.754 -34.112 -7.16 -47.428 c -3.174 -7.818 -7.223 -14.176 -11.945 -18.929 c 3.012 -2.905 6.01 -5.849 8.992 -8.83 c 0.744 -0.745 1.48 -1.492 2.22 -2.24 C 278.493 402.391 284.418 425.171 284.418 449.738 z M 248.036 475.074 c -0.133 0.043 -0.268 0.082 -0.401 0.126 c -1.547 0.5 -3.102 0.972 -4.661 1.427 c -0.426 0.123 -0.853 0.248 -1.28 0.368 c -1.67 0.473 -3.345 0.925 -5.029 1.345 c -0.147 0.037 -0.295 0.069 -0.443 0.106 c -1.566 0.385 -3.137 0.741 -4.713 1.08 c -0.437 0.095 -0.874 0.188 -1.311 0.278 c -1.699 0.35 -3.402 0.683 -5.112 0.981 c -0.146 0.024 -0.294 0.046 -0.439 0.07 c -1.597 0.274 -3.2 0.518 -4.805 0.745 c -0.438 0.061 -0.877 0.122 -1.316 0.181 c -1.728 0.229 -3.461 0.44 -5.199 0.616 c -0.145 0.014 -0.289 0.024 -0.434 0.039 c -1.623 0.16 -3.251 0.29 -4.882 0.403 c -0.237 0.017 -0.474 0.031 -0.712 0.047 c -0.534 -6.389 -0.518 -13.116 0.062 -19.862 c 0.842 -9.748 2.859 -19.195 5.78 -27.491 c 9.466 -7.611 18.913 -15.675 28.275 -24.135 c 2.786 2.573 5.441 6.726 7.621 12.095 c 4.7 11.576 6.597 27.459 5.205 43.577 c 0 0.003 0 0.007 0 0.007 c -0.173 2.031 -0.399 4.058 -0.675 6.073 c -0.191 0.07 -0.383 0.141 -0.574 0.21 C 251.347 473.954 249.697 474.53 248.036 475.074 z M 181.663 482.622 c -0.724 -0.063 -1.447 -0.132 -2.17 -0.205 c -0.865 -0.087 -1.728 -0.182 -2.59 -0.283 c -0.823 -0.095 -1.645 -0.192 -2.464 -0.3 c -1.12 -0.147 -2.239 -0.302 -3.354 -0.473 c -0.584 -0.088 -1.167 -0.181 -1.749 -0.276 c -1.141 -0.186 -2.279 -0.383 -3.414 -0.591 c -0.335 -0.062 -0.67 -0.117 -1.003 -0.181 c -1.466 -0.279 -2.927 -0.582 -4.384 -0.902 c -0.389 -0.085 -0.777 -0.172 -1.167 -0.26 c -1.363 -0.308 -2.724 -0.629 -4.079 -0.973 c -0.12 -0.03 -0.24 -0.058 -0.36 -0.088 c 0.569 -0.9 1.122 -1.786 1.678 -2.675 c 9.599 -5.804 19.324 -12.198 29.104 -19.132 c -0.192 1.599 -0.368 3.206 -0.508 4.827 c -0.632 7.336 -0.686 14.683 -0.196 21.764 c -0.157 -0.01 -0.313 -0.023 -0.469 -0.033 C 183.577 482.777 182.618 482.704 181.663 482.622 z M 250.962 371.636 c -4.98 4.981 -10.005 9.843 -15.058 14.592 c -12.981 -0.394 -25.284 7.696 -34.817 22.974 c -2.419 3.876 -4.595 8.145 -6.526 12.708 c -4.532 3.569 -9.063 7.022 -13.583 10.362 c 10.344 -20.577 16.773 -37.049 21.781 -49.888 c 10.466 -26.836 12.386 -29.3 22.817 -29.3 c 10.847 0 21.118 5.122 29.955 13.938 C 254.023 368.561 252.5 370.098 250.962 371.636 z M 270.916 350.813 c -13.198 -12.996 -28.811 -19.971 -45.339 -19.971 c -26.589 0 -33.333 17.289 -43.54 43.46 c -7.501 19.234 -18.316 46.939 -41.501 84.807 c -5.087 2.982 -10.129 5.786 -15.11 8.392 c -18.962 -8.904 -36.037 -21.293 -50.369 -36.458 c 8.454 2.572 15.873 3.874 22.395 3.874 c 7.219 -0.001 13.357 -1.574 18.636 -4.711 c 16.652 -9.899 19.977 -31.943 24.186 -59.85 c 3.78 -25.064 8.484 -56.257 23.753 -88.83 c 3.479 -7.422 6.148 -15.061 7.932 -22.706 c 1.396 -5.981 -2.321 -11.962 -8.302 -13.358 c -5.98 -1.393 -11.962 2.321 -13.358 8.303 c -1.432 6.137 -3.59 12.301 -6.411 18.321 c -16.64 35.5 -21.612 68.466 -25.607 94.953 c -3.2 21.213 -5.962 39.533 -13.558 44.047 c -4.979 2.963 -15.125 1.795 -29.34 -3.369 c -8.93 -3.243 -17.437 -6.933 -25.335 -10.987 c -0.191 -0.348 -0.388 -0.693 -0.577 -1.043 c -0.4 -0.74 -0.792 -1.485 -1.181 -2.231 c -0.433 -0.831 -0.861 -1.664 -1.28 -2.502 c -0.376 -0.754 -0.745 -1.509 -1.11 -2.269 c -0.405 -0.843 -0.803 -1.689 -1.193 -2.538 c -0.351 -0.765 -0.698 -1.532 -1.038 -2.303 c -0.377 -0.855 -0.746 -1.713 -1.109 -2.573 c -0.327 -0.775 -0.648 -1.551 -0.963 -2.331 c -0.35 -0.869 -0.692 -1.742 -1.028 -2.617 c -0.3 -0.782 -0.598 -1.565 -0.886 -2.351 c -0.324 -0.882 -0.635 -1.767 -0.943 -2.655 c -0.275 -0.79 -0.547 -1.579 -0.811 -2.373 c -0.296 -0.894 -0.578 -1.793 -0.86 -2.692 c -0.248 -0.794 -0.496 -1.588 -0.732 -2.387 c -0.268 -0.908 -0.522 -1.821 -0.775 -2.733 c -0.221 -0.798 -0.445 -1.597 -0.654 -2.398 c -0.241 -0.921 -0.465 -1.847 -0.691 -2.773 c -0.195 -0.801 -0.393 -1.599 -0.575 -2.401 c -0.212 -0.936 -0.408 -1.877 -0.605 -2.816 c -0.168 -0.8 -0.34 -1.598 -0.496 -2.4 c -0.186 -0.953 -0.35 -1.912 -0.519 -2.868 c -0.14 -0.794 -0.287 -1.587 -0.415 -2.383 c -0.158 -0.979 -0.294 -1.961 -0.434 -2.942 c -0.112 -0.781 -0.232 -1.559 -0.334 -2.341 c -0.13 -1.014 -0.237 -2.032 -0.349 -3.048 c -0.083 -0.754 -0.177 -1.506 -0.249 -2.262 c -0.103 -1.069 -0.18 -2.142 -0.262 -3.213 c -0.054 -0.71 -0.121 -1.415 -0.167 -2.124 c -0.077 -1.192 -0.125 -2.388 -0.176 -3.583 c -0.026 -0.591 -0.065 -1.181 -0.083 -1.772 c -0.058 -1.788 -0.088 -3.58 -0.088 -5.372 c 0 -13.081 1.507 -26.007 4.484 -38.584 c 1.016 0.132 2.052 0.207 3.106 0.207 c 2.789 0 5.704 -0.465 8.707 -1.405 c 7.449 -2.332 14.724 -7.217 22.428 -12.389 c 10.032 -6.737 21.381 -14.409 30.939 -13.983 c 8.459 0.324 15.553 -3.811 19.449 -11.404 c 8.289 -16.157 -0.127 -45.643 -12.941 -62.482 c 0.284 -0.183 0.558 -0.38 0.843 -0.562 c 0.286 -0.183 0.576 -0.361 0.863 -0.543 c 1.565 -0.989 3.145 -1.953 4.741 -2.888 c 0.221 -0.13 0.44 -0.264 0.662 -0.394 c 1.713 -0.994 3.446 -1.95 5.191 -2.88 c 0.185 -0.099 0.37 -0.196 0.556 -0.294 c 9.352 7.002 17.259 15.877 23.077 25.952 c 3.072 5.319 9.875 7.141 15.193 4.069 c 5.319 -3.073 7.141 -9.875 4.069 -15.193 c -5.281 -9.146 -11.934 -17.498 -19.641 -24.75 c 10.345 -3.629 20.984 -6.203 31.857 -7.709 c -2.661 5.735 -4.063 11.758 -4.063 17.886 c 0 18.643 20.829 35.171 63.675 50.528 c 13.156 4.721 21.966 17.475 21.923 31.769 v 0.339 c 0 32.951 12.11 62.504 31.166 82.362 C 281.002 339.639 276.056 345.216 270.916 350.813 z M 41.669 253.688 c 0.242 -0.598 0.494 -1.192 0.743 -1.787 c 0.514 -1.228 1.042 -2.45 1.584 -3.663 c 0.272 -0.611 0.545 -1.22 0.825 -1.826 c 0.603 -1.307 1.226 -2.601 1.862 -3.89 c 0.224 -0.453 0.438 -0.911 0.666 -1.362 c 0.863 -1.71 1.755 -3.405 2.675 -5.08 c 0.218 -0.396 0.448 -0.785 0.668 -1.181 c 0.723 -1.29 1.459 -2.572 2.215 -3.842 c 0.34 -0.573 0.69 -1.139 1.036 -1.707 c 0.682 -1.113 1.377 -2.219 2.084 -3.315 c 0.359 -0.557 0.718 -1.115 1.084 -1.668 c 0.821 -1.239 1.662 -2.464 2.516 -3.682 c 0.255 -0.361 0.499 -0.73 0.757 -1.09 c 1.111 -1.555 2.25 -3.092 3.415 -4.61 c 0.306 -0.397 0.623 -0.786 0.932 -1.182 c 0.885 -1.132 1.782 -2.254 2.697 -3.363 c 0.419 -0.509 0.845 -1.013 1.272 -1.517 c 0.861 -1.019 1.735 -2.026 2.62 -3.025 c 0.42 -0.474 0.839 -0.95 1.264 -1.418 c 1.089 -1.199 2.196 -2.382 3.322 -3.551 c 0.219 -0.227 0.432 -0.462 0.652 -0.688 c 1.352 -1.389 2.735 -2.754 4.138 -4.099 c 0.377 -0.36 0.764 -0.714 1.144 -1.071 c 1.049 -0.986 2.107 -1.963 3.184 -2.923 c 0.487 -0.436 0.979 -0.867 1.472 -1.298 c 0.438 -0.383 0.889 -0.754 1.331 -1.133 c 10.736 13.912 13.285 32.951 11.296 38.317 c -16.404 -0.335 -30.706 9.288 -43.337 17.768 c -5.319 3.571 -10.388 6.974 -14.468 8.781 C 41.44 254.285 41.549 253.984 41.669 253.688 z M 276.824 251.732 v -0.305 c 0.07 -23.652 -14.659 -44.845 -36.657 -52.739 c -40.149 -14.391 -48.941 -26.241 -48.941 -29.591 c 0 -8.095 5.16 -14.73 10.419 -19.39 c 1.22 0.038 2.439 0.088 3.656 0.152 c 0.216 0.012 0.43 0.028 0.645 0.041 c 1.015 0.058 2.031 0.119 3.044 0.196 c 0.426 0.032 0.851 0.072 1.277 0.108 c 0.8 0.067 1.599 0.132 2.397 0.209 c 0.497 0.048 0.993 0.106 1.49 0.158 c 0.723 0.077 1.446 0.153 2.168 0.239 c 0.529 0.064 1.058 0.135 1.586 0.204 c 0.687 0.088 1.375 0.177 2.06 0.275 c 0.546 0.077 1.091 0.161 1.636 0.244 c 0.665 0.101 1.33 0.205 1.993 0.313 c 0.557 0.092 1.113 0.189 1.669 0.286 c 0.648 0.115 1.297 0.23 1.944 0.35 c 0.563 0.106 1.124 0.215 1.685 0.326 c 0.639 0.127 1.278 0.257 1.916 0.391 c 0.563 0.118 1.125 0.24 1.686 0.364 c 0.635 0.141 1.269 0.287 1.902 0.435 c 0.558 0.13 1.118 0.262 1.675 0.398 c 0.635 0.157 1.269 0.317 1.903 0.482 c 0.553 0.142 1.105 0.285 1.657 0.433 c 0.635 0.17 1.269 0.348 1.903 0.527 c 0.545 0.155 1.09 0.305 1.633 0.465 c 0.468 0.137 0.934 0.281 1.4 0.423 c -1.113 3.133 -1.769 6.371 -1.93 9.662 c -0.758 15.407 14.24 28.949 47.196 42.612 c 8.468 3.514 13.836 12.156 13.372 21.514 l -0.012 0.191 c -0.003 0.052 -0.006 0.106 -0.009 0.158 c -1.061 21.752 4.764 42.639 16.405 58.813 c 0.1 0.139 0.207 0.268 0.308 0.406 c -6.103 8.769 -12.758 17.726 -19.967 26.815 C 285.801 301.119 276.824 277.768 276.824 251.732 z M 316.458 200.791 c 1.012 1.053 2.004 2.126 2.987 3.205 c 0.267 0.295 0.544 0.579 0.81 0.874 c 1.228 1.367 2.431 2.756 3.613 4.16 c 0.408 0.486 0.802 0.984 1.204 1.474 c 0.777 0.946 1.553 1.892 2.308 2.854 c 0.465 0.591 0.916 1.192 1.372 1.789 c 0.673 0.881 1.343 1.763 1.998 2.657 c 0.468 0.637 0.925 1.282 1.385 1.926 c 0.623 0.875 1.24 1.754 1.846 2.641 c 0.452 0.662 0.899 1.326 1.34 1.994 c 0.593 0.895 1.176 1.796 1.752 2.702 c 0.425 0.669 0.85 1.338 1.264 2.014 c 0.578 0.939 1.141 1.885 1.7 2.836 c 0.385 0.654 0.774 1.305 1.15 1.964 c 0.593 1.039 1.164 2.087 1.735 3.138 c 0.317 0.583 0.643 1.161 0.952 1.748 c 0.765 1.451 1.506 2.915 2.229 4.387 c 0.096 0.197 0.2 0.389 0.295 0.585 c 0.268 0.55 0.513 1.113 0.774 1.667 c -4.066 7.816 -8.685 15.928 -13.856 24.277 c -5.786 -10.924 -8.574 -24.01 -7.921 -37.67 l 0.012 -0.177 c 0.002 -0.041 0.004 -0.081 0.007 -0.122 c 0.974 -18.757 -9.898 -36.144 -27.059 -43.267 c -29.55 -12.251 -33.209 -20.366 -33.494 -21.144 c 0.058 -0.909 0.23 -1.816 0.514 -2.719 c 0.539 0.247 1.082 0.487 1.619 0.74 c 0.703 0.329 1.406 0.661 2.103 0.999 c 1.046 0.508 2.082 1.032 3.115 1.56 c 0.669 0.344 1.341 0.682 2.005 1.034 c 1.081 0.573 2.148 1.163 3.213 1.758 c 0.594 0.331 1.193 0.654 1.783 0.993 c 1.297 0.745 2.577 1.514 3.85 2.292 c 0.339 0.207 0.685 0.403 1.022 0.613 c 1.595 0.99 3.168 2.006 4.725 3.046 c 0.483 0.323 0.954 0.661 1.434 0.989 c 1.072 0.732 2.141 1.468 3.194 2.224 c 0.602 0.434 1.193 0.879 1.788 1.32 c 0.913 0.674 1.824 1.351 2.721 2.044 c 0.628 0.485 1.249 0.979 1.869 1.471 c 0.849 0.673 1.693 1.352 2.528 2.042 c 0.624 0.516 1.242 1.038 1.858 1.56 c 0.816 0.695 1.625 1.398 2.427 2.107 c 0.604 0.534 1.207 1.07 1.802 1.611 c 0.805 0.733 1.598 1.478 2.388 2.225 c 0.566 0.536 1.135 1.07 1.695 1.614 c 0.827 0.807 1.639 1.628 2.45 2.451 C 315.465 199.785 315.969 200.281 316.458 200.791 z M 358.539 277.684 c 0.292 1.223 0.562 2.454 0.826 3.686 c 0.133 0.617 0.277 1.23 0.404 1.849 c 0.371 1.827 0.716 3.66 1.026 5.504 c 0.014 0.087 0.028 0.173 0.042 0.26 c 0.281 1.688 0.529 3.384 0.76 5.086 c -4.691 -1.213 -9.168 -3.395 -13.298 -6.45 c 3.161 -4.918 6.164 -9.807 9.022 -14.663 c 0.231 0.856 0.457 1.714 0.676 2.573 C 358.179 276.248 358.367 276.963 358.539 277.684 z M 335.828 306.078 c 8.221 5.914 17.464 9.624 27.263 10.871 c -0.004 1.591 -0.033 3.185 -0.083 4.779 c -0.017 0.526 -0.04 1.051 -0.061 1.577 c -0.053 1.309 -0.122 2.617 -0.206 3.924 c -0.033 0.52 -0.063 1.041 -0.101 1.56 c -0.127 1.733 -0.272 3.463 -0.453 5.189 c -6.191 2.451 -12.616 3.69 -19.17 3.69 c -9.152 0 -17.874 -2.426 -25.809 -6.804 C 323.772 322.596 329.994 314.318 335.828 306.078 z M 31.14 482.096 c -11.361 -11.36 -10.148 -36.37 2.774 -68.773 c 16.33 27.32 39.151 49.927 66.186 65.917 C 67.68 492.16 42.402 493.359 31.14 482.096 z M 306.458 441.692 c -1.232 -27.491 -8.749 -53.22 -21.51 -73.294 c 6.211 -6.701 12.221 -13.453 18.012 -20.234 c 12.032 7.509 25.647 11.748 40.056 11.748 c 4.985 0 9.906 -0.504 14.742 -1.491 C 349.395 390.617 331.494 419.657 306.458 441.692 z" stroke-linecap="round"/>
</g>
		<g transform="matrix(1.1075 0 0 1.1075 178.9543 -260.8218)" id="SVGRepo_iconCarrier">
<path style="stroke: none; stroke-width: 1; stroke-dasharray: none; stroke-linecap: butt; stroke-dashoffset: 0; stroke-linejoin: miter; stroke-miterlimit: 4; is-custom-font: none; font-file-url: none; fill: rgb(0,0,0); fill-rule: nonzero; opacity: 1;" vector-effect="non-scaling-stroke" transform=" translate(-444.087, -66.727)" d="M 444.087 0 c -36.793 0 -66.727 29.934 -66.727 66.727 s 29.934 66.727 66.727 66.727 s 66.727 -29.934 66.727 -66.727 S 480.88 0 444.087 0 z M 444.087 111.212 c -24.529 0 -44.485 -19.956 -44.485 -44.485 s 19.956 -44.485 44.485 -44.485 s 44.485 19.956 44.485 44.485 S 468.615 111.212 444.087 111.212 z" stroke-linecap="round"/>
</g>
		<g transform="matrix(1.1075 0 0 1.1075 178.9548 -113.018)" id="SVGRepo_iconCarrier">
<path style="stroke: none; stroke-width: 1; stroke-dasharray: none; stroke-linecap: butt; stroke-dashoffset: 0; stroke-linejoin: miter; stroke-miterlimit: 4; is-custom-font: none; font-file-url: none; fill: rgb(0,0,0); fill-rule: nonzero; opacity: 1;" vector-effect="non-scaling-stroke" transform=" translate(-444.087, -200.182)" d="M 444.087 177.94 c -12.264 0 -22.242 9.978 -22.242 22.242 c 0 12.264 9.978 22.242 22.242 22.242 s 22.242 -9.978 22.242 -22.242 C 466.329 187.918 456.351 177.94 444.087 177.94 z" stroke-linecap="round"/>
</g>
		<g transform="matrix(1.1075 0 0 1.1075 31.1506 -285.2494)" id="SVGRepo_iconCarrier">
<path style="stroke: none; stroke-width: 1; stroke-dasharray: none; stroke-linecap: butt; stroke-dashoffset: 0; stroke-linejoin: miter; stroke-miterlimit: 4; is-custom-font: none; font-file-url: none; fill: rgb(0,0,0); fill-rule: nonzero; opacity: 1;" vector-effect="non-scaling-stroke" transform=" translate(-310.632, -44.6705)" d="M 310.632 67.098 c 12.367 0 22.428 -10.061 22.428 -22.427 c 0 -12.367 -10.061 -22.428 -22.428 -22.428 s -22.428 10.061 -22.428 22.428 C 288.204 57.036 298.265 67.098 310.632 67.098 z M 310.632 44.485 c 0.102 0 0.186 0.083 0.186 0.186 c 0 0.205 -0.371 0.205 -0.371 0 C 310.446 44.568 310.53 44.485 310.632 44.485 z" stroke-linecap="round"/>
</g>
		<g transform="matrix(0.3418 0 0 0.3418 129.2336 120.482)" id="SVGRepo_iconCarrier">
<path style="stroke: none; stroke-width: 1; stroke-dasharray: none; stroke-linecap: butt; stroke-dashoffset: 0; stroke-linejoin: miter; stroke-miterlimit: 4; is-custom-font: none; font-file-url: none; fill: rgb(250,252,251); fill-rule: nonzero; opacity: 1;" vector-effect="non-scaling-stroke" transform=" translate(-512.35, -510.95)" d="M 972.7 271.9 h -2.6 c -13.6 -81 -83.9 -142.7 -168.7 -142.7 c -84.8 0 -155.1 61.8 -168.7 142.7 H 392.1 c -13.6 -81 -83.9 -142.7 -168.7 -142.7 c -84.8 0 -155.1 61.8 -168.7 142.7 h -2.6 L 23.6 802.4 c 0 49.9 40.4 90.3 90.3 90.3 c 42.3 0 78.9 -29.3 88.1 -70.5 l 91.1 -200.6 h 438.5 l 91.1 200.6 c 9.3 41.2 45.9 70.5 88.1 70.5 c 49.9 0 90.3 -40.4 90.3 -90.3 l -28.4 -530.5 z" stroke-linecap="round"/>
</g>
		<g transform="matrix(0.3418 0 0 0.3418 129.2161 120.5158)" id="SVGRepo_iconCarrier">
<path style="stroke: none; stroke-width: 1; stroke-dasharray: none; stroke-linecap: butt; stroke-dashoffset: 0; stroke-linejoin: miter; stroke-miterlimit: 4; is-custom-font: none; font-file-url: none; fill: rgb(15,15,15); fill-rule: nonzero; opacity: 1;" vector-effect="non-scaling-stroke" transform=" translate(-512.3003, -511.05)" d="M 910.9 905.8 c -23.4 0 -46.3 -8 -64.6 -22.7 c -17.9 -14.3 -30.6 -34.4 -35.9 -56.7 l -87.1 -191.8 H 301.5 l -87.1 191.8 c -5.3 22.3 -18 42.4 -35.9 56.7 c -18.3 14.6 -41.2 22.7 -64.6 22.7 c -57 0 -103.3 -46.4 -103.3 -103.3 v -0.7 l 28.5 -530.5 c 0.2 -3.5 1.7 -6.6 4.1 -8.8 c 8.3 -39.6 29.7 -75.6 60.6 -102.1 c 33.2 -28.5 75.7 -44.1 119.5 -44.1 s 86.3 15.7 119.5 44.1 c 30 25.7 51 60.4 59.8 98.6 H 622 c 8.8 -38.2 29.8 -72.9 59.8 -98.6 c 33.2 -28.5 75.7 -44.1 119.5 -44.1 s 86.3 15.7 119.5 44.1 c 30.9 26.5 52.3 62.5 60.6 102.1 c 2.4 2.2 3.9 5.3 4.1 8.8 l 28.5 530.5 v 0.7 c 0.2 56.9 -46.2 103.3 -103.1 103.3 z M 293.1 608.6 h 438.5 c 5.1 0 9.7 3 11.8 7.6 l 91.1 200.6 c 0.4 0.8 0.7 1.7 0.8 2.5 c 3.8 17.1 13.5 32.5 27.1 43.4 c 13.7 10.9 30.8 17 48.3 17 c 42.5 0 77.2 -34.5 77.3 -77 l -28.1 -522.5 c -1.4 -1.7 -2.4 -3.8 -2.8 -6.1 c -6.1 -36.5 -25.1 -69.9 -53.3 -94 c -28.5 -24.4 -65 -37.9 -102.6 -37.9 c -37.6 0 -74.1 13.5 -102.6 37.9 c -28.2 24.1 -47.1 57.5 -53.3 94 c -1.1 6.3 -6.5 10.8 -12.8 10.8 H 392.1 c -6.3 0 -11.8 -4.6 -12.8 -10.8 c -6.1 -36.5 -25.1 -69.9 -53.3 -94 c -28.5 -24.4 -65 -37.9 -102.6 -37.9 c -37.6 0 -74.1 13.5 -102.6 37.9 c -28.2 24.1 -47.1 57.5 -53.3 94 c -0.4 2.3 -1.4 4.4 -2.8 6.1 L 36.6 802.8 c 0.2 42.5 34.8 77 77.3 77 c 17.5 0 34.7 -6 48.3 -17 c 13.7 -10.9 23.3 -26.4 27.1 -43.4 c 0.2 -0.9 0.5 -1.7 0.8 -2.5 l 91.1 -200.6 c 2.2 -4.7 6.8 -7.7 11.9 -7.7 z" stroke-linecap="round"/>
</g>
		<g transform="matrix(0.3418 0 0 0.3418 64.3187 149.1608)" id="SVGRepo_iconCarrier">
<path style="stroke: none; stroke-width: 1; stroke-dasharray: none; stroke-linecap: butt; stroke-dashoffset: 0; stroke-linejoin: miter; stroke-miterlimit: 4; is-custom-font: none; font-file-url: none; fill: rgb(157,198,175); fill-rule: nonzero; opacity: 1;" vector-effect="non-scaling-stroke" transform=" translate(-322.4, -594.8)" d="M 322.4 594.8 m -98.1 0 a 98.1 98.1 0 1 0 196.2 0 a 98.1 98.1 0 1 0 -196.2 0 Z" stroke-linecap="round"/>
</g>
		<g transform="matrix(0.3418 0 0 0.3418 64.318 149.1601)" id="SVGRepo_iconCarrier">
<path style="stroke: none; stroke-width: 1; stroke-dasharray: none; stroke-linecap: butt; stroke-dashoffset: 0; stroke-linejoin: miter; stroke-miterlimit: 4; is-custom-font: none; font-file-url: none; fill: rgb(25,25,25); fill-rule: nonzero; opacity: 1;" vector-effect="non-scaling-stroke" transform=" translate(-322.4, -594.8)" d="M 322.4 705.9 c -61.3 0 -111.1 -49.8 -111.1 -111.1 s 49.8 -111.1 111.1 -111.1 s 111.1 49.8 111.1 111.1 s -49.8 111.1 -111.1 111.1 z m 0 -196.2 c -46.9 0 -85.1 38.2 -85.1 85.1 s 38.2 85.1 85.1 85.1 c 46.9 0 85.1 -38.2 85.1 -85.1 s -38.2 -85.1 -85.1 -85.1 z" stroke-linecap="round"/>
</g>
		<g transform="matrix(0.3418 0 0 0.3418 194.2217 149.1608)" id="SVGRepo_iconCarrier">
<path style="stroke: none; stroke-width: 1; stroke-dasharray: none; stroke-linecap: butt; stroke-dashoffset: 0; stroke-linejoin: miter; stroke-miterlimit: 4; is-custom-font: none; font-file-url: none; fill: rgb(157,198,175); fill-rule: nonzero; opacity: 1;" vector-effect="non-scaling-stroke" transform=" translate(-702.4, -594.8)" d="M 702.4 594.8 m -98.1 0 a 98.1 98.1 0 1 0 196.2 0 a 98.1 98.1 0 1 0 -196.2 0 Z" stroke-linecap="round"/>
</g>
		<g transform="matrix(0.3418 0 0 0.3418 194.221 149.1601)" id="SVGRepo_iconCarrier">
<path style="stroke: none; stroke-width: 1; stroke-dasharray: none; stroke-linecap: butt; stroke-dashoffset: 0; stroke-linejoin: miter; stroke-miterlimit: 4; is-custom-font: none; font-file-url: none; fill: rgb(25,25,25); fill-rule: nonzero; opacity: 1;" vector-effect="non-scaling-stroke" transform=" translate(-702.4, -594.8)" d="M 702.4 705.9 c -61.3 0 -111.1 -49.8 -111.1 -111.1 s 49.8 -111.1 111.1 -111.1 s 111.1 49.8 111.1 111.1 s -49.9 111.1 -111.1 111.1 z m 0 -196.2 c -46.9 0 -85.1 38.2 -85.1 85.1 s 38.2 85.1 85.1 85.1 s 85.1 -38.2 85.1 -85.1 s -38.2 -85.1 -85.1 -85.1 z" stroke-linecap="round"/>
</g>
		<g transform="matrix(0.3418 0 0 0.3418 128.7942 116.0385)" id="SVGRepo_iconCarrier">
<path style="stroke: none; stroke-width: 1; stroke-dasharray: none; stroke-linecap: butt; stroke-dashoffset: 0; stroke-linejoin: miter; stroke-miterlimit: 4; is-custom-font: none; font-file-url: none; fill: rgb(211,158,51); fill-rule: nonzero; opacity: 1;" vector-effect="non-scaling-stroke" transform=" translate(-511, -497.9)" d="M 511 497.9 m -45.2 0 a 45.2 45.2 0 1 0 90.4 0 a 45.2 45.2 0 1 0 -90.4 0 Z" stroke-linecap="round"/>
</g>
		<g transform="matrix(0.3418 0 0 0.3418 128.7936 116.0373)" id="SVGRepo_iconCarrier">
<path style="stroke: none; stroke-width: 1; stroke-dasharray: none; stroke-linecap: butt; stroke-dashoffset: 0; stroke-linejoin: miter; stroke-miterlimit: 4; is-custom-font: none; font-file-url: none; fill: rgb(17,17,17); fill-rule: nonzero; opacity: 1;" vector-effect="non-scaling-stroke" transform=" translate(-511, -497.9)" d="M 511 556.1 c -32.1 0 -58.2 -26.1 -58.2 -58.2 s 26.1 -58.2 58.2 -58.2 s 58.2 26.1 58.2 58.2 s -26.1 58.2 -58.2 58.2 z m 0 -90.4 c -17.8 0 -32.2 14.4 -32.2 32.2 s 14.4 32.2 32.2 32.2 c 17.8 0 32.2 -14.4 32.2 -32.2 s -14.4 -32.2 -32.2 -32.2 z" stroke-linecap="round"/>
</g>
		<g transform="matrix(0.3418 0 0 0.3418 25.2463 60.5541)" id="SVGRepo_iconCarrier">
<path style="stroke: none; stroke-width: 1; stroke-dasharray: none; stroke-linecap: butt; stroke-dashoffset: 0; stroke-linejoin: miter; stroke-miterlimit: 4; is-custom-font: none; font-file-url: none; fill: rgb(250,252,251); fill-rule: nonzero; opacity: 1;" vector-effect="non-scaling-stroke" transform=" translate(-208.1, -335.6)" d="M 262.3 308.9 h -27.5 v -27.5 c 0 -14.7 -12 -26.7 -26.7 -26.7 s -26.7 12 -26.7 26.7 v 27.5 h -27.5 c -14.7 0 -26.7 12 -26.7 26.7 s 12 26.7 26.7 26.7 h 27.5 v 27.5 c 0 14.7 12 26.7 26.7 26.7 s 26.7 -12 26.7 -26.7 v -27.5 h 27.5 c 14.7 0 26.7 -12 26.7 -26.7 s -12 -26.7 -26.7 -26.7 z" stroke-linecap="round"/>
</g>
		<g transform="matrix(0.3418 0 0 0.3418 25.2451 60.5534)" id="SVGRepo_iconCarrier">
<path style="stroke: none; stroke-width: 1; stroke-dasharray: none; stroke-linecap: butt; stroke-dashoffset: 0; stroke-linejoin: miter; stroke-miterlimit: 4; is-custom-font: none; font-file-url: none; fill: rgb(15,15,15); fill-rule: nonzero; opacity: 1;" vector-effect="non-scaling-stroke" transform=" translate(-208.1, -335.6)" d="M 208.1 429.5 c -21.9 0 -39.7 -17.8 -39.7 -39.7 v -14.5 h -14.5 c -21.9 0 -39.7 -17.8 -39.7 -39.7 c 0 -21.9 17.8 -39.7 39.7 -39.7 h 14.5 v -14.5 c 0 -21.9 17.8 -39.7 39.7 -39.7 s 39.7 17.8 39.7 39.7 v 14.5 h 14.5 c 21.9 0 39.7 17.8 39.7 39.7 c 0 21.9 -17.8 39.7 -39.7 39.7 h -14.5 v 14.5 c 0 21.9 -17.8 39.7 -39.7 39.7 z m -54.2 -107.6 c -7.5 0 -13.7 6.1 -13.7 13.7 c 0 7.5 6.1 13.7 13.7 13.7 h 27.5 c 7.2 0 13 5.8 13 13 v 27.5 c 0 7.5 6.1 13.7 13.7 13.7 s 13.7 -6.1 13.7 -13.7 v -27.5 c 0 -7.2 5.8 -13 13 -13 h 27.5 c 7.5 0 13.7 -6.1 13.7 -13.7 c 0 -7.5 -6.1 -13.7 -13.7 -13.7 h -27.5 c -7.2 0 -13 -5.8 -13 -13 v -27.5 c 0 -7.5 -6.1 -13.7 -13.7 -13.7 s -13.7 6.1 -13.7 13.7 v 27.5 c 0 7.2 -5.8 13 -13 13 h -27.5 z" stroke-linecap="round"/>
</g>
		<g transform="matrix(0.3418 0 0 0.3418 229.4015 29.0379)" id="SVGRepo_iconCarrier">
<path style="stroke: none; stroke-width: 1; stroke-dasharray: none; stroke-linecap: butt; stroke-dashoffset: 0; stroke-linejoin: miter; stroke-miterlimit: 4; is-custom-font: none; font-file-url: none; fill: rgb(15,15,15); fill-rule: nonzero; opacity: 1;" vector-effect="non-scaling-stroke" transform=" translate(-805.3, -243.4)" d="M 805.3 243.4 m -33.3 0 a 33.3 33.3 0 1 0 66.6 0 a 33.3 33.3 0 1 0 -66.6 0 Z" stroke-linecap="round"/>
</g>
		<g transform="matrix(0.3418 0 0 0.3418 229.4015 83.3237)" id="SVGRepo_iconCarrier">
<path style="stroke: none; stroke-width: 1; stroke-dasharray: none; stroke-linecap: butt; stroke-dashoffset: 0; stroke-linejoin: miter; stroke-miterlimit: 4; is-custom-font: none; font-file-url: none; fill: rgb(15,15,15); fill-rule: nonzero; opacity: 1;" vector-effect="non-scaling-stroke" transform=" translate(-805.3, -402.2)" d="M 805.3 402.2 m -33.3 0 a 33.3 33.3 0 1 0 66.6 0 a 33.3 33.3 0 1 0 -66.6 0 Z" stroke-linecap="round"/>
</g>
		<g transform="matrix(0.3418 0 0 0.3418 256.5444 56.1808)" id="SVGRepo_iconCarrier">
<path style="stroke: none; stroke-width: 1; stroke-dasharray: none; stroke-linecap: butt; stroke-dashoffset: 0; stroke-linejoin: miter; stroke-miterlimit: 4; is-custom-font: none; font-file-url: none; fill: rgb(15,15,15); fill-rule: nonzero; opacity: 1;" vector-effect="non-scaling-stroke" transform=" translate(-884.7, -322.8)" d="M 884.7 322.8 m -33.3 0 a 33.3 33.3 0 1 0 66.6 0 a 33.3 33.3 0 1 0 -66.6 0 Z" stroke-linecap="round"/>
</g>
		<g transform="matrix(0.3418 0 0 0.3418 202.2241 56.1808)" id="SVGRepo_iconCarrier">
<path style="stroke: none; stroke-width: 1; stroke-dasharray: none; stroke-linecap: butt; stroke-dashoffset: 0; stroke-linejoin: miter; stroke-miterlimit: 4; is-custom-font: none; font-file-url: none; fill: rgb(15,15,15); fill-rule: nonzero; opacity: 1;" vector-effect="non-scaling-stroke" transform=" translate(-725.8, -322.8)" d="M 725.8 322.8 m -33.3 0 a 33.3 33.3 0 1 0 66.6 0 a 33.3 33.3 0 1 0 -66.6 0 Z" stroke-linecap="round"/>
</g>
</g>
</g>
</svg>