<!DOCTYPE svg PUBLIC "-//W3C//DTD SVG 1.1//EN" "http://www.w3.org/Graphics/SVG/1.1/DTD/svg11.dtd">
<!-- Uploaded to: SVG Repo, www.svgrepo.com, Transformed by: SVG Repo Mixer Tools -->
<svg version="1.1" id="Uploaded to svgrepo.com" xmlns="http://www.w3.org/2000/svg" xmlns:xlink="http://www.w3.org/1999/xlink" width="64px" height="64px" viewBox="0 0 64 64" xml:space="preserve" fill="#000000">
<g id="SVGRepo_bgCarrier" stroke-width="0"/>
<g id="SVGRepo_tracerCarrier" stroke-linecap="round" stroke-linejoin="round"/>
<g id="SVGRepo_iconCarrier"> <style type="text/css"> .fandom_een{fill:#FF786E;} .fandom_twee{fill:#BE5652;} .fandom_drie{fill:#BE9148;} .fandom_vier{fill:#FFC865;} .fandom_vijf{fill:#018273;} .fandom_zes{fill:#00B3AA;} .fandom_zeven{fill:#508D9B;} .fandom_acht{fill:#6BC4D2;} .fandom_negen{fill:#685683;} .fandom_tien{fill:#8579A3;} .st0{fill:#EFEAE0;} .st1{fill:#AA9991;} .st2{fill:#3A3A3A;} .st3{fill:#666666;} .st4{fill:#4D4D4D;} .st5{fill:#CCCCCC;} .st6{fill:#808080;} .st7{fill:#644638;} .st8{fill:#4B322A;} .st9{fill:#FFFAFA;} </style> <g> <g> <path class="fandom_acht" d="M32,7C18.193,7,7,18.193,7,32h50C57,18.193,45.807,7,32,7z"/> <path class="fandom_zeven" d="M32,57c13.807,0,25-11.193,25-25H7C7,45.807,18.193,57,32,57z"/> </g> <g> <path class="fandom_een" d="M9.421,30.415c-5.29,11.53-6.677,23.073-7.032,27.596C2.343,58.593,2.803,59,3.387,59h1.081 c0.465-5.023,1.993-15.775,6.953-26.585C20.214,13.249,35.625,3.718,56,3.083V2c0-0.558-0.497-0.949-1.055-0.941 C34.082,1.388,18.355,10.942,9.421,30.415z"/> <path class="fandom_vier" d="M11.421,32.415C6.461,43.225,4.932,53.977,4.468,59H6.68c0.66-5.543,2.365-15.047,6.741-24.585 C21.924,15.881,36.617,6.415,56,5.178V3.083C35.625,3.718,20.214,13.249,11.421,32.415z"/> <path class="fandom_tien" d="M15.421,36.415C11.534,44.886,9.754,53.343,8.943,59h1.47c0.486,0,0.898-0.26,0.982-0.739 c0.963-5.445,2.742-12.689,6.026-19.846C25.199,21.461,38.127,12.24,55.11,9.692C55.599,9.619,56,8.994,56,8.5V7.339 C37.608,9.143,23.629,18.524,15.421,36.415z"/> <path class="fandom_zes" d="M13.421,34.415C9.045,43.952,7.34,53.457,6.68,59h2.263c0.812-5.657,2.591-14.113,6.478-22.585 C23.629,18.524,37.608,9.144,56,7.34V5.178C36.617,6.415,21.924,15.881,13.421,34.415z"/> <path class="fandom_twee" d="M54.42,20.926c-0.249-0.503-0.515-0.997-0.796-1.481c-11.63,1.7-20.489,8.22-25.834,19.87 c-2.809,6.123-4.028,12.196-4.554,16.105c0.495,0.185,0.998,0.356,1.508,0.51c0.585-3.906,1.822-9.547,4.43-15.231 C34.428,29.247,43.078,22.766,54.42,20.926z"/> <path class="fandom_drie" d="M55.108,22.443c-0.213-0.514-0.442-1.02-0.688-1.516c-11.341,1.84-19.992,8.32-25.246,19.773 c-2.608,5.684-3.845,11.324-4.43,15.231c0.506,0.153,1.019,0.291,1.538,0.412c0.638-3.839,1.877-9.03,4.276-14.259 C35.704,30.866,44.108,24.449,55.108,22.443z"/> <path class="fandom_vijf" d="M55.691,23.995c-0.177-0.525-0.372-1.043-0.583-1.552c-11,2.007-19.404,8.424-24.55,19.641 c-2.399,5.228-3.638,10.42-4.276,14.259c0.518,0.121,1.042,0.226,1.572,0.315c0.683-3.705,1.906-8.432,4.089-13.19 C36.962,32.524,45.084,26.182,55.691,23.995z"/> <path class="fandom_negen" d="M31.942,43.468c-2.183,4.758-3.405,9.484-4.089,13.19c0.532,0.089,1.069,0.161,1.612,0.215 c0.717-3.505,1.902-7.75,3.861-12.021c4.877-10.631,12.68-16.868,22.845-19.258c-0.143-0.541-0.303-1.074-0.481-1.6 C45.084,26.182,36.962,32.524,31.942,43.468z"/> </g> </g> </g>
</svg>